<svg xmlns="http://www.w3.org/2000/svg" version="1.1" xmlns:xlink="http://www.w3.org/1999/xlink" xmlns:svgjs="http://svgjs.com/svgjs" width="512" height="512" x="0" y="0" viewBox="0 0 512 512" style="enable-background:new 0 0 512 512" xml:space="preserve" class=""><g><path d="M506.854 172.208c-.202-.122-.449-.086-.656-.194l.073-.139-47.604-24.835v-29.707c0-21.99-33.167-32-64-32-14.436 0-29.263 2.292-41.078 6.882L320 74.688V53.333c0-21.99-33.167-32-64-32s-64 10.01-64 32v21.354l-33.589 17.527c-11.815-4.59-26.642-6.882-41.078-6.882-30.833 0-64 10.01-64 32v29.707L5.729 171.875l.073.141c-.208.107-.454.072-.656.193A10.687 10.687 0 0 0 0 181.333V352a10.67 10.67 0 0 0 5.729 9.458l245.333 128c1.542.802 3.25 1.208 4.938 1.208s3.396-.406 4.938-1.208l245.333-128A10.67 10.67 0 0 0 512 352V181.333a10.69 10.69 0 0 0-5.146-9.125z" style="" fill="#303c42" data-original="#303c42"></path><path d="M455.921 169.677C447.669 184.868 420.483 192 394.667 192c-30.833 0-64-10.01-64-32v-42.667c0-4.173 1.505-7.78 3.652-11.104l-14.803-7.724C316.982 118.667 285.578 128 256 128s-60.982-9.333-63.516-29.495l-14.803 7.724c2.147 3.324 3.652 6.931 3.652 11.104V160c0 21.99-33.167 32-64 32-25.816 0-53.003-7.132-61.254-22.323l-22.346 11.658L256 297.302l222.267-115.967-22.346-11.658zM320 224c0 21.99-33.167 32-64 32s-64-10.01-64-32v-42.667c0-21.99 33.167-32 64-32s64 10.01 64 32V224z" style="" fill="#0288d1" data-original="#0288d1"></path><linearGradient id="a" x1="-38.884" x2="-29.104" y1="642.943" y2="633.164" gradientTransform="matrix(21.3333 0 0 -21.3333 996.333 13791.667)" gradientUnits="userSpaceOnUse"><stop offset="0" style="stop-color:#000000;stop-opacity:0.1" stop-color=""></stop><stop offset="1" style="stop-color:#000000;stop-opacity:0" stop-color=""></stop></linearGradient><path d="m478.267 181.335-22.346-11.658C447.669 184.868 420.483 192 394.667 192c-30.833 0-64-10.01-64-32v-42.667c0-4.173 1.505-7.78 3.652-11.104l-14.803-7.724C316.982 118.667 285.578 128 256 128c-21.813 0-44.534-5.118-56.022-15.87l-.034.018 83.396 83.396L268 204l-86.666-86.667V160c0 21.99-33.167 32-64 32-20.22 0-41.143-4.447-53.288-13.642l-.046.024 39.194 39.194L256 297.302l222.267-115.967z" style="fill:url(#a);" fill=""></path><path d="M256 149.333c-30.833 0-64 10.01-64 32V224c0 21.99 33.167 32 64 32s64-10.01 64-32v-42.667c0-21.989-33.167-32-64-32z" style="" fill="#303c42" data-original="#303c42"></path><path d="M256 170.667c25.042 0 39.646 7.177 42.396 10.667C295.646 184.823 281.042 192 256 192c-26.203 0-40.949-7.844-42.667-10.003v-.216c1.718-3.268 16.464-11.114 42.667-11.114z" style="" fill="#01579b" data-original="#01579b"></path><path d="M256 234.667c-26.5 0-41.334-8.042-42.667-10.667v-18.105c12.038 5.008 27.604 7.439 42.667 7.439 15.087 0 30.682-2.438 42.728-7.461l.043 17.555c-1.438 3.197-16.271 11.239-42.771 11.239zM160.061 141.872l.043 17.555c-1.438 3.198-16.271 11.24-42.771 11.24S76 162.625 74.667 160v-18.105c12.038 5.008 27.604 7.439 42.667 7.439 15.087-.001 30.682-2.438 42.727-7.462zM298.771 95.427c-1.438 3.198-16.271 11.24-42.771 11.24S214.666 98.625 213.333 96V77.895c12.038 5.008 27.604 7.439 42.667 7.439 15.087 0 30.682-2.438 42.728-7.461l.043 17.554zM437.438 159.427c-1.438 3.198-16.271 11.24-42.771 11.24S353.333 162.625 352 160v-18.105c12.038 5.008 27.604 7.439 42.667 7.439 15.087 0 30.682-2.438 42.728-7.461l.043 17.554zM21.333 198.927l224 116.875v146.602l-224-116.873z" style="" fill="#0288d1" data-original="#0288d1"></path><path d="m490.667 345.531-224 116.873V315.802l224-116.875zM437.063 117.333c-2.75 3.49-17.354 10.667-42.396 10.667-26.203 0-40.949-7.844-42.667-10.003v-.216c1.717-3.268 16.464-11.115 42.667-11.115 25.041.001 39.646 7.178 42.396 10.667zM256 42.667c25.042 0 39.646 7.177 42.396 10.667C295.646 56.823 281.042 64 256 64c-26.203 0-40.949-7.844-42.667-10.003v-.216c1.718-3.268 16.464-11.114 42.667-11.114zM117.333 106.667c25.042 0 39.646 7.177 42.396 10.667-2.75 3.49-17.354 10.667-42.396 10.667-26.203 0-40.949-7.844-42.667-10.003v-.216c1.718-3.269 16.464-11.115 42.667-11.115z" style="" fill="#01579b" data-original="#01579b"></path><linearGradient id="b" x1="-30.209" x2="-24.262" y1="635.676" y2="629.729" gradientTransform="matrix(21.3333 0 0 -21.3333 996.333 13791.667)" gradientUnits="userSpaceOnUse"><stop offset="0" style="stop-color:#000000;stop-opacity:0.1" stop-color=""></stop><stop offset="1" style="stop-color:#000000;stop-opacity:0" stop-color=""></stop></linearGradient><path d="M490.667 345.531V198.927l-224 116.875 96.337 96.337z" style="fill:url(#b);" fill=""></path><linearGradient id="c" x1="-45.833" x2="-22.972" y1="639.961" y2="629.297" gradientTransform="matrix(21.3333 0 0 -21.3333 996.333 13791.667)" gradientUnits="userSpaceOnUse"><stop offset="0" style="stop-color:#FFFFFF;stop-opacity:0.2" stop-color=""></stop><stop offset="1" style="stop-color:#FFFFFF;stop-opacity:0" stop-color=""></stop></linearGradient><path d="M506.854 172.208c-.202-.122-.449-.086-.656-.194l.073-.139-47.604-24.835v-29.707c0-21.99-33.167-32-64-32-14.436 0-29.263 2.292-41.078 6.882L320 74.688V53.333c0-21.99-33.167-32-64-32s-64 10.01-64 32v21.354l-33.589 17.527c-11.815-4.59-26.642-6.882-41.078-6.882-30.833 0-64 10.01-64 32v29.707L5.729 171.875l.073.141c-.208.107-.454.072-.656.193A10.687 10.687 0 0 0 0 181.333V352a10.67 10.67 0 0 0 5.729 9.458l245.333 128c1.542.802 3.25 1.208 4.938 1.208s3.396-.406 4.938-1.208l245.333-128A10.67 10.67 0 0 0 512 352V181.333a10.69 10.69 0 0 0-5.146-9.125z" style="fill:url(#c);" fill=""></path></g></svg>